# xmcd CD database file
#
# Track frame offsets:
#	150
#	19032
#	41050
#
# Disc length: 795 seconds
#
# Revision: 0
# Processed by: cddbd v1.5.1PL0 Copyright (c) Steve Scherf et al.
# Submitted via: CDex 1.51
#
DISCID=1c031903
DTITLE=岩田 さゆり - 空色の猫
DYEAR=2005
DGENRE=JPop
TTITLE0=空色の猫
TTITLE1=たたき続けた扉
TTITLE2=空色の猫 -Insturmental-
EXTD=YEAR: 2005
EXTT0=
EXTT1=
EXTT2=
PLAYORDER=
